<svg width="915" height="1055" xmlns="http://www.w3.org/2000/svg" xmlns:xlink="http://www.w3.org/1999/xlink" xml:space="preserve" overflow="hidden"><g transform="translate(-3157 -20)"><path d="M3614.5 38.9997 4056 292.933 4056 802.067 3614.5 1056 3173 802.067 3173 292.933Z" stroke="#08312A" stroke-width="32.0833" stroke-miterlimit="8" fill="#08312A" fill-rule="evenodd"/><path d="M3209 547.5C3209 325.205 3389.21 145 3611.5 145 3833.79 145 4014 325.205 4014 547.5 4014 769.795 3833.79 950 3611.5 950 3389.21 950 3209 769.795 3209 547.5Z" stroke="#00E47C" stroke-width="32.0833" stroke-miterlimit="8" fill="#08312A" fill-rule="evenodd"/><g><g><g><path d="M3611.5 342.05C3649.95 342.05 3681.42 310.587 3681.42 272.134 3681.42 233.68 3649.95 202.217 3611.5 202.217 3573.05 202.217 3541.58 233.68 3541.58 272.134 3541.58 310.587 3573.05 342.05 3611.5 342.05ZM3611.5 237.175C3630.73 237.175 3646.46 252.907 3646.46 272.134 3646.46 291.36 3630.73 307.092 3611.5 307.092 3592.27 307.092 3576.54 291.36 3576.54 272.134 3576.54 252.907 3592.27 237.175 3611.5 237.175ZM3897.11 341.7 3727.91 403.227C3710.78 409.519 3692.6 412.667 3674.08 412.667L3548.92 412.667C3530.4 412.667 3512.22 409.519 3495.09 403.227L3325.89 341.7 3337.78 308.839 3506.97 370.366C3520.26 375.261 3534.24 377.708 3548.92 377.708L3674.08 377.708C3688.76 377.708 3702.74 375.261 3716.03 370.366L3885.22 308.839 3897.11 341.7ZM3674.08 447.625 3709.38 447.625 3705.89 512.648 3705.88 512.742 3705.89 512.742 3705.75 515.556 3702.39 585.71 3700.24 626.975 3686.66 901.479 3536.34 901.479 3524.49 662.004 3520.61 585.71 3517.25 515.556 3517.11 512.742 3517.12 512.742 3517.11 512.648 3513.62 447.625 3548.57 447.625 3551.72 512.648 3569.9 866.426 3569.9 866.52 3594.02 866.52 3594.02 630.202 3628.98 630.202 3628.98 866.52 3653.1 866.52 3653.1 866.426 3674.08 447.625Z" fill="#00E47C"/></g></g></g></g></svg>